<svg xmlns="http://www.w3.org/2000/svg" viewBox="0 0 160 160" fill="none" aria-hidden="true">
  <defs>
    <linearGradient id="cap-code" x1="40" y1="24" x2="120" y2="136" gradientUnits="userSpaceOnUse">
      <stop stop-color="#7ED9F0"/>
      <stop offset="1" stop-color="#2F86B0"/>
    </linearGradient>
  </defs>
  <path d="M80 20l44 18v36c0 28-18 48-44 58-26-10-44-30-44-58V38L80 20z" fill="url(#cap-code)"/>
  <path d="M80 36l30 12v26c0 20-12 34-30 42-18-8-30-22-30-42V48L80 36z" fill="#E8F8FC" opacity=".28"/>
  <rect x="72" y="58" width="16" height="34" rx="6" fill="#E8F8FC"/>
  <rect x="75" y="48" width="10" height="14" rx="3" fill="#49C0E6"/>
  <circle cx="80" cy="100" r="8" fill="#E10613"/>
  <path d="M80 96v8M76 100h8" stroke="#E8F8FC" stroke-width="2.5" stroke-linecap="round"/>
</svg>
